<svg width="1532" height="387" viewBox="0 0 1532 387" fill="none" xmlns="http://www.w3.org/2000/svg">
<path d="M954.394 352.604C951.615 353.299 949.345 354.054 947.458 355.764C944.901 358.084 941.724 359.084 938.381 359.564C936.847 359.784 935.289 359.934 933.742 359.939C925.75 359.961 917.757 359.926 909.765 359.908C909.321 359.908 908.876 359.883 908.433 359.859C903.683 359.609 899.299 358.496 895.492 355.342C892.73 353.054 889.741 353.035 886.999 355.319C883.194 358.489 878.794 359.568 874.055 359.831C872.283 359.929 870.505 359.923 868.728 359.926C863.399 359.936 858.07 359.939 852.743 359.923C850.746 359.916 848.741 359.939 846.752 359.788C842.254 359.446 837.978 358.431 834.495 355.281C833.478 354.36 832.298 353.824 830.894 353.77C829.073 353.702 827.344 353.865 825.927 355.194C822.675 358.244 818.622 359.256 814.351 359.654C812.806 359.799 811.248 359.843 809.696 359.846C802.814 359.863 795.931 359.851 789.047 359.841C787.937 359.839 786.824 359.849 785.719 359.756C781.223 359.376 776.943 358.394 773.461 355.244C772.444 354.324 771.277 353.772 769.872 353.714C768.05 353.637 766.315 353.784 764.902 355.116C761.468 358.353 757.181 359.304 752.679 359.661C751.574 359.748 750.46 359.774 749.352 359.776C742.47 359.786 735.587 359.789 728.704 359.771C727.152 359.766 725.593 359.726 724.046 359.594C719.769 359.228 715.717 358.209 712.439 355.204C711.022 353.905 709.35 353.562 707.508 353.674C706.38 353.742 705.231 353.879 704.401 354.669C700.051 358.813 694.632 359.651 688.977 359.676C681.429 359.709 673.88 359.659 666.331 359.631C665.223 359.626 664.113 359.558 663.004 359.491C658.689 359.234 654.684 358.117 651.4 355.134C650.168 354.014 648.741 353.627 647.126 353.625C645.533 353.625 644.034 353.814 642.812 354.986C639.402 358.259 635.135 359.238 630.606 359.499C630.163 359.524 629.72 359.561 629.276 359.559C620.619 359.536 611.96 359.538 603.302 359.469C598.525 359.433 594.013 358.418 590.358 355.096C588.393 353.31 585.839 353.41 583.555 352.655C581.782 352.069 580.079 352.267 578.515 353.439C574.471 356.471 569.808 357.816 564.845 358.076C559.528 358.354 554.201 358.506 548.876 358.571C537.333 358.714 525.79 358.821 514.246 358.823C511.482 358.823 508.992 359.394 506.657 360.818C504.573 362.088 502.468 363.323 500.376 364.583C495.244 367.673 490.142 370.815 484.973 373.844C482.488 375.299 479.91 376.602 477.326 377.878C469.517 381.73 461.231 382.645 452.677 381.708C446.425 381.023 441.173 378.534 437.611 373.102C437.249 372.552 436.804 372.054 436.372 371.554C436.232 371.39 436.012 371.297 435.607 371.019C434.969 370.959 434.097 370.807 433.225 370.807C397.264 370.795 361.301 370.797 325.226 370.797C323.797 371.875 322.372 372.909 320.994 374.002C316.67 377.433 311.761 379.213 306.242 379.296C303.134 379.343 300.027 379.401 296.918 379.393C264.06 379.301 231.2 379.206 198.343 379.084C192.794 379.064 187.233 379.089 181.696 378.778C174.385 378.366 167.083 377.751 159.797 377.021C154.28 376.469 148.793 375.617 143.296 374.867C139.335 374.327 135.448 373.457 131.598 372.362C122.291 369.713 115.57 364.031 111.356 355.357C108.633 349.748 106.397 343.973 105.402 337.771C104.876 334.484 104.106 331.29 102.697 328.208C101.602 325.815 100.987 323.173 100.385 320.587C98.5218 312.587 97.1166 304.501 96.1948 296.334C95.5481 290.601 94.7715 284.883 94.1781 279.144C93.858 276.057 93.788 272.941 93.6313 269.839C93.383 264.909 93.9264 260.09 95.6832 255.442C95.9133 254.835 95.985 254.168 96.175 253.325C92.4463 248.918 91.4828 243.499 91.2344 237.878C90.4377 219.912 89.6777 201.943 90.1411 183.952C90.2378 180.18 90.5527 176.414 90.6527 172.642C90.7977 167.165 92.5762 162.66 97.7 159.966C98.2651 159.67 98.4518 158.651 98.1501 158.223C98.0234 158.041 97.9451 157.813 97.7884 157.666C92.6463 152.857 91.3762 146.677 91.7195 140.023C92.1429 131.822 92.668 123.626 93.2997 115.439C93.7781 109.245 94.4348 103.063 95.1199 96.8873C95.5849 92.6986 96.1182 88.5082 96.8399 84.3578C97.4467 80.8692 98.0335 77.3339 99.5987 74.1036C100.405 72.4384 100.51 70.7166 100.59 68.9314C101.114 57.2821 104.007 46.1544 108.136 35.3134C108.766 33.6599 109.566 32.0648 110.369 30.4846C114.048 23.249 119.639 18.1935 127.266 15.2633C134.13 12.6264 141.129 10.7362 148.4 9.54109C160.014 7.63259 171.677 6.18578 183.37 4.93733C185.793 4.67897 188.243 4.569 190.682 4.55233C210.219 4.42732 229.755 4.34896 249.292 4.24062C262.39 4.16895 275.488 4.06727 288.587 3.9906C294.36 3.95726 300.133 4.02728 305.904 3.91894C312.186 3.8006 317.668 5.74244 322.415 9.84114C323.754 10.9962 325.151 12.0864 326.591 13.2648C328.136 13.3298 329.679 13.4498 331.223 13.4515C364.304 13.4881 397.385 13.5131 430.467 13.5381C431.799 13.5381 433.134 13.4615 434.462 13.5248C436.407 13.6181 437.876 12.8814 438.984 11.2913C439.746 10.1995 440.551 9.13274 441.403 8.11098C444.671 4.18896 448.812 1.79043 453.916 1.25538C460.864 0.528652 467.643 1.34705 474.202 3.78727C478.168 5.2624 481.916 7.19924 485.49 9.4461C490.562 12.6347 495.563 15.9384 500.613 19.162C503.23 20.8321 505.76 22.719 508.565 23.9824C511.219 25.1775 514.268 24.5492 517.135 24.5958C527.344 24.7625 537.556 24.7991 547.767 24.8558C553.318 24.8858 558.86 24.9125 564.399 25.4592C568.919 25.9059 573.15 27.0994 576.807 29.7896C579.028 31.4264 581.292 31.5165 583.734 30.8031C586.061 30.1247 588.349 29.5012 590.288 27.7711C592.831 25.5009 596.003 24.4291 599.442 24.2575C600.55 24.2025 601.657 24.0391 602.764 24.0391C611.643 24.0308 620.522 24.0124 629.401 24.0791C632.292 24.1008 635.202 24.3575 637.809 25.7793C639.356 26.6227 640.809 27.6444 642.264 28.6445C644.641 30.2796 648.13 30.3813 650.353 28.7895C651.253 28.1445 652.058 27.3544 652.993 26.7727C655.087 25.4692 657.355 24.5642 659.839 24.3775C662.273 24.1941 664.713 24.0108 667.153 23.9941C674.035 23.9474 680.918 23.9758 687.802 24.0024C689.353 24.0091 690.905 24.1358 692.459 24.2008C696.351 24.3658 699.939 25.5059 702.828 28.1328C704.49 29.6446 706.288 29.9513 708.337 29.8846C709.709 29.8396 710.95 29.523 711.992 28.5562C715.441 25.3576 719.638 24.1891 724.221 24.1675C733.324 24.1241 742.425 24.1075 751.527 24.0925C756.568 24.0841 761.123 25.3642 765.055 28.7462C767.115 30.518 771.027 30.5047 773.087 28.6995C776.818 25.4309 781.155 24.1658 785.962 24.1541C795.065 24.1308 804.167 24.1591 813.269 24.1575C818.092 24.1575 822.404 25.4609 826.184 28.6195C828.599 30.6364 832.19 30.5497 834.733 28.4612C838.155 25.6526 842.014 24.2641 846.374 24.2491C856.142 24.2158 865.909 24.2408 875.677 24.2491C879.815 24.2525 883.582 25.4476 886.756 28.1178C888.198 29.3313 889.691 30.0013 891.566 29.9863C893.402 29.973 894.987 29.5813 896.435 28.2845C899.544 25.5026 903.331 24.3142 907.46 24.2975C917.449 24.2575 927.436 24.2441 937.426 24.2825C941.318 24.2975 944.856 25.5543 947.912 27.9645C949.145 28.9379 950.42 29.7346 951.859 30.368C953.862 31.2481 955.599 31.2065 957.464 29.8813C961.563 26.9661 966.238 25.7226 971.239 25.6009C975.899 25.4859 980.558 25.2759 985.218 25.2409C992.767 25.1842 1000.32 25.3259 1007.86 25.2159C1014.52 25.1192 1021.17 24.7909 1027.83 24.5642C1029.41 24.5108 1030.88 24.1092 1032.22 23.2157C1033.88 22.1073 1035.58 21.0539 1037.25 19.9588C1041.7 17.0352 1046.12 14.0566 1050.6 11.1863C1054.16 8.91276 1057.84 6.86427 1061.75 5.25079C1067.35 2.93892 1073.13 1.60048 1079.23 1.72215C1086.53 1.86883 1092.54 4.75241 1097.47 10.0329C1098.52 11.1563 1099.47 12.3731 1100.37 13.4382C1106.36 13.8565 1203.62 13.8516 1209.29 13.4316C1214.13 9.23451 1219.97 6.75591 1226.33 5.26578C1230.07 4.38903 1233.82 4.26903 1237.57 4.77074C1242.41 5.41747 1247.22 6.26923 1251.87 7.83437C1259.87 10.5279 1267.7 13.6149 1275.14 17.6403C1297.48 29.7297 1318.27 44.0693 1337.31 60.8975C1350.49 72.5469 1362.28 85.5197 1373.16 99.3226C1379.75 107.692 1386.16 116.206 1392.64 124.663C1393.85 126.248 1395.03 127.867 1396.21 129.48C1400.72 135.653 1400.4 135.081 1407.14 135.071C1410.23 135.066 1413.35 135.358 1416.62 134.776C1416.99 134.056 1417.52 133.326 1417.75 132.509C1418.4 130.16 1418.89 127.765 1419.53 125.412C1420.12 123.216 1421.09 121.273 1423.31 120.203C1423.88 119.928 1424.37 119.403 1424.78 118.894C1425.54 117.938 1426.56 117.621 1427.69 117.581C1429.24 117.524 1430.8 117.526 1432.36 117.526C1444.34 117.528 1456.33 117.541 1468.32 117.538C1470.54 117.538 1472.71 117.611 1474.9 118.246C1476.56 118.726 1478.41 118.623 1480.18 118.631C1489.06 118.673 1497.94 118.666 1506.82 118.678C1508.38 118.679 1509.93 118.681 1511.48 118.694C1515.97 118.731 1518.98 121.023 1520.91 124.907C1522.91 128.934 1523.75 133.324 1524.5 137.684C1526.01 146.437 1527 155.256 1527.47 164.135C1528.07 175.444 1528.66 186.752 1528.42 198.082C1528.13 211.624 1527.5 225.154 1525.83 238.605C1525.21 243.661 1524.18 248.676 1523.15 253.672C1522.71 255.827 1521.83 257.899 1521.08 259.98C1520.29 262.134 1518.85 263.772 1516.96 265.069C1515.27 266.228 1513.51 266.929 1511.4 266.911C1503.63 266.846 1495.86 266.876 1488.09 266.871C1484.75 266.869 1481.42 266.854 1478.09 266.879C1476.99 266.888 1475.77 266.726 1474.8 267.124C1471.79 268.359 1468.69 268.006 1465.6 268.011C1454.72 268.028 1443.84 268.021 1432.97 268.014C1431.19 268.014 1429.41 268.011 1427.64 267.909C1427 267.873 1426.26 267.698 1425.78 267.316C1422.26 264.524 1419.14 261.437 1418.36 256.708C1418.15 255.397 1417.9 254.078 1417.52 252.808C1417.27 251.991 1416.74 251.258 1416.34 250.475C1411.77 249.908 1407.34 250.03 1402.92 250.396C1401.35 250.526 1399.92 251.171 1398.9 252.5C1397.82 253.908 1396.69 255.275 1395.62 256.69C1389.2 265.194 1382.85 273.755 1376.36 282.204C1367.97 293.125 1359.15 303.678 1349.53 313.559C1327.3 336.386 1301.73 354.521 1273.05 368.307C1267.65 370.899 1262.2 373.397 1256.64 375.619C1249.82 378.348 1242.72 380.031 1235.32 380.463C1226.51 380.978 1218.72 378.306 1211.51 373.496C1210.96 373.127 1210.46 372.679 1209.92 372.287C1208.99 371.61 1207.95 371.315 1206.8 371.325C1205.91 371.334 1205.03 371.317 1204.14 371.315C1171.72 371.297 1139.31 371.279 1106.89 371.262C1104.68 371.262 1102.47 371.262 1100.23 371.262C1099 372.395 1097.88 373.449 1096.74 374.486C1089.92 380.703 1081.87 382.965 1072.78 381.956C1066.96 381.311 1061.54 379.501 1056.37 376.799C1051.25 374.121 1046.41 370.992 1041.59 367.81C1039 366.097 1036.38 364.413 1033.89 362.566C1030.92 360.373 1027.69 359.209 1023.99 359.174C1020.44 359.141 1016.89 358.903 1013.34 358.886C1000.91 358.831 988.477 358.873 976.044 358.784C973.17 358.764 970.289 358.468 967.432 358.124C963.63 357.669 960.129 356.311 956.952 354.144C956.224 353.647 955.442 353.229 954.385 352.595L954.394 352.604Z" fill="black"/>
</svg>
