<svg width="1629" height="1050" viewBox="0 0 1629 1050" fill="none" xmlns="http://www.w3.org/2000/svg">
<path d="M0.671875 683.491H82.9812" stroke="#494949" stroke-width="0.8"/>
<path d="M924.674 680.812H991.674" stroke="#494949" stroke-width="0.8"/>
<path d="M114.453 177.534H235.496" stroke="#494949" stroke-width="0.8"/>
<path d="M235.496 177.534H472.74" stroke="#494949" stroke-width="0.8"/>
<path d="M472.74 177.534H1094.9" stroke="#494949" stroke-width="0.8"/>
<path d="M1094.9 177.534H1332.15" stroke="#494949" stroke-width="0.8"/>
<path d="M0.671875 80.6946H1622.65" stroke="#494949" stroke-width="0.8"/>
<path d="M1332.15 177.534H1530.66" stroke="#494949" stroke-width="0.8"/>
<path d="M1530.66 177.534H1564.55" stroke="#494949" stroke-width="0.8"/>
<path d="M1563.67 80.9915V351.992" stroke="#494949" stroke-width="0.8"/>
<path d="M1628.48 30.8598V347.86" stroke="#494949" stroke-width="0.8"/>
<path d="M1628 496L1628 1050" stroke="#494949" stroke-width="0.8"/>
<path d="M1456 569L1456 1050" stroke="#494949" stroke-width="0.8"/>
<path d="M83 81L83 1049" stroke="#494949" stroke-width="0.8"/>
<path d="M114.453 80.6946V346.99" stroke="#494949" stroke-width="0.8"/>
<path d="M114.453 390.566V1049.04" stroke="#494949" stroke-width="0.8"/>
<path d="M235.496 80.6946V1049.04" stroke="#494949" stroke-width="0.8"/>
<path d="M1090.67 80.8116V224.812" stroke="#494949" stroke-width="0.8"/>
<path d="M1332.67 80.8116V197.812" stroke="#494949" stroke-width="0.8"/>
<path d="M1529.67 80.8116V351.812" stroke="#494949" stroke-width="0.8"/>
<path d="M1530 489L1530 1050" stroke="#494949" stroke-width="0.8"/>
<path d="M541 611V1050" stroke="#494949" stroke-width="0.8"/>
<path d="M608 611V1050" stroke="#494949" stroke-width="0.8"/>
<path d="M618 613V1050" stroke="#494949" stroke-width="0.8"/>
<path d="M695 613L695 1050" stroke="#494949" stroke-width="0.8"/>
<path d="M686 613L686 1050" stroke="#494949" stroke-width="0.8"/>
<path d="M762 613L762 1050" stroke="#494949" stroke-width="0.8"/>
<path d="M848 613L848 1050" stroke="#494949" stroke-width="0.8"/>
<path d="M771 613L771 1050" stroke="#494949" stroke-width="0.8"/>
<path d="M925 613L925 1050" stroke="#494949" stroke-width="0.8"/>
<path d="M916 613L916 1050" stroke="#494949" stroke-width="0.8"/>
<path d="M839 613L839 1050" stroke="#494949" stroke-width="0.8"/>
<path d="M992 613L992 1050" stroke="#494949" stroke-width="0.8"/>
<path d="M1.00005 1L0.999954 1049" stroke="#494949" stroke-width="0.8"/>
<path d="M1203.16 675.595H1202.12L1199 667.14H1200.11L1202.62 674.312H1202.66L1205.17 667.14H1206.28L1203.16 675.595ZM1212.8 673.832H1207.07V672.929H1212.8V673.832ZM1212.8 671.587H1207.07V670.685H1212.8V671.587ZM1216.29 675.595V668.259H1216.27L1214.03 669.871V668.757L1216.28 667.14H1217.31V675.595H1216.29ZM1222.3 675.736C1220.32 675.736 1219.18 674.037 1219.18 671.365C1219.18 668.716 1220.33 667 1222.3 667C1224.26 667 1225.4 668.705 1225.4 671.359C1225.4 674.031 1224.27 675.736 1222.3 675.736ZM1222.3 674.816C1223.62 674.816 1224.34 673.474 1224.34 671.365C1224.34 669.285 1223.6 667.925 1222.3 667.925C1220.99 667.925 1220.24 669.296 1220.24 671.359C1220.24 673.468 1220.97 674.816 1222.3 674.816ZM1229.46 675.736C1227.48 675.736 1226.34 674.037 1226.34 671.365C1226.34 668.716 1227.49 667 1229.46 667C1231.42 667 1232.56 668.705 1232.56 671.359C1232.56 674.031 1231.42 675.736 1229.46 675.736ZM1229.46 674.816C1230.77 674.816 1231.5 673.474 1231.5 671.365C1231.5 669.285 1230.76 667.925 1229.46 667.925C1228.15 667.925 1227.4 669.296 1227.4 671.359C1227.4 673.468 1228.13 674.816 1229.46 674.816ZM1236.61 675.736C1234.64 675.736 1233.5 674.037 1233.5 671.365C1233.5 668.716 1234.65 667 1236.61 667C1238.58 667 1239.72 668.705 1239.72 671.359C1239.72 674.031 1238.58 675.736 1236.61 675.736ZM1236.61 674.816C1237.93 674.816 1238.66 673.474 1238.66 671.365C1238.66 669.285 1237.92 667.925 1236.61 667.925C1235.31 667.925 1234.56 669.296 1234.56 671.359C1234.56 673.468 1235.29 674.816 1236.61 674.816ZM1246.73 674.939H1240.78V674.072H1246.73V674.939ZM1244.19 671.716V673.421H1243.32V671.716H1240.78V670.919H1243.32V669.214H1244.19V670.919H1246.73V671.716H1244.19ZM1247.9 669.578C1247.9 668.101 1249.1 667 1250.69 667C1252.2 667 1253.39 668.025 1253.39 669.32C1253.39 670.263 1252.97 670.966 1251.55 672.425L1249.42 674.634V674.658H1253.53V675.595H1247.96V674.869L1250.93 671.734C1252.07 670.539 1252.34 670.087 1252.34 669.384C1252.34 668.57 1251.6 667.919 1250.66 667.919C1249.67 667.919 1248.92 668.634 1248.92 669.578V669.584H1247.9V669.578ZM1257.59 675.736C1255.62 675.736 1254.48 674.037 1254.48 671.365C1254.48 668.716 1255.63 667 1257.59 667C1259.56 667 1260.7 668.705 1260.7 671.359C1260.7 674.031 1259.56 675.736 1257.59 675.736ZM1257.59 674.816C1258.91 674.816 1259.64 673.474 1259.64 671.365C1259.64 669.285 1258.9 667.925 1257.59 667.925C1256.29 667.925 1255.54 669.296 1255.54 671.359C1255.54 673.468 1256.27 674.816 1257.59 674.816ZM1265.17 675.595H1264.16V669.501H1265.4L1267.57 674.248H1267.61L1269.79 669.501H1270.98V675.595H1269.97V671.271H1269.93L1267.96 675.419H1267.18L1265.21 671.271H1265.17V675.595ZM1273.92 672.906C1273.8 674.587 1273.39 675.648 1272.11 675.648C1271.93 675.648 1271.82 675.613 1271.75 675.584V674.664C1271.8 674.681 1271.91 674.71 1272.06 674.71C1272.66 674.71 1272.89 674.001 1272.96 672.882L1273.2 669.501H1277.19V675.595H1276.18V670.339H1274.11L1273.92 672.906Z" fill="#494949"/>
<path d="M1209.38 132.812V131.054H1205.13V130.099C1205.85 128.763 1206.84 127.222 1208.84 124.356H1210.4V130.128H1211.59V131.054H1210.4V132.812H1209.38ZM1206.17 130.104V130.128H1209.38V125.235H1209.36C1207.76 127.521 1206.84 128.933 1206.17 130.104ZM1212.45 126.794C1212.45 125.317 1213.65 124.216 1215.24 124.216C1216.75 124.216 1217.94 125.241 1217.94 126.536C1217.94 127.479 1217.51 128.183 1216.1 129.642L1213.96 131.851V131.874H1218.08V132.812H1212.5V132.085L1215.48 128.95C1216.62 127.755 1216.89 127.304 1216.89 126.601C1216.89 125.786 1216.14 125.136 1215.21 125.136C1214.22 125.136 1213.47 125.851 1213.47 126.794V126.8H1212.45V126.794Z" fill="#494949"/>
<path d="M1426.08 129.265V128.374H1427.1C1428.07 128.374 1428.75 127.747 1428.75 126.892C1428.75 126.054 1428.18 125.486 1427.11 125.486C1426.13 125.486 1425.49 126.042 1425.4 126.927H1424.38C1424.5 125.491 1425.57 124.572 1427.15 124.572C1428.67 124.572 1429.81 125.48 1429.81 126.751C1429.81 127.812 1429.13 128.573 1428.07 128.761V128.784C1429.35 128.861 1430.17 129.652 1430.17 130.841C1430.17 132.294 1428.85 133.308 1427.19 133.308C1425.42 133.308 1424.29 132.329 1424.21 130.929H1425.23C1425.32 131.796 1426.04 132.394 1427.18 132.394C1428.3 132.394 1429.1 131.761 1429.1 130.876C1429.1 129.88 1428.35 129.265 1427.14 129.265H1426.08ZM1434.25 133.308C1432.63 133.308 1431.43 132.3 1431.35 130.859H1432.38C1432.48 131.761 1433.24 132.382 1434.26 132.382C1435.41 132.382 1436.2 131.585 1436.2 130.448C1436.2 129.312 1435.4 128.497 1434.28 128.497C1433.48 128.497 1432.81 128.855 1432.47 129.447H1431.48L1431.94 124.712H1436.78V125.65H1432.81L1432.55 128.404H1432.57C1432.95 127.894 1433.65 127.589 1434.46 127.589C1436.09 127.589 1437.26 128.779 1437.26 130.419C1437.26 132.118 1436.01 133.308 1434.25 133.308Z" fill="#494949"/>
<path d="M1546.42 132.958C1545.15 132.958 1544.14 132.272 1543.62 131.054C1543.34 130.403 1543.21 129.642 1543.21 128.728C1543.21 125.88 1544.42 124.21 1546.49 124.21C1547.92 124.21 1549.02 125.071 1549.29 126.401H1548.22C1547.99 125.634 1547.31 125.142 1546.48 125.142C1545.06 125.142 1544.26 126.396 1544.23 128.646H1544.24C1544.62 127.819 1545.56 127.274 1546.6 127.274C1548.22 127.274 1549.41 128.464 1549.41 130.069C1549.41 131.739 1548.15 132.958 1546.42 132.958ZM1546.41 132.021C1547.48 132.021 1548.34 131.171 1548.34 130.104C1548.34 128.997 1547.54 128.2 1546.42 128.2C1545.3 128.2 1544.48 128.997 1544.48 130.075C1544.48 131.159 1545.32 132.021 1546.41 132.021Z" fill="#494949"/>
</svg>
